<mxfile host="app.diagrams.net" modified="2022-03-19T08:50:41.108Z" agent="5.0 (Windows NT 10.0; Win64; x64) AppleWebKit/537.36 (KHTML, like Gecko) Chrome/99.0.4844.51 Safari/537.36" etag="JOcKdBLuLDdoVab0uerm" version="17.1.3" type="github">
  <diagram id="HmDtId7qisvzbzxh--_U" name="Page-1">
    <mxGraphModel dx="782" dy="460" grid="1" gridSize="10" guides="1" tooltips="1" connect="1" arrows="1" fold="1" page="1" pageScale="1" pageWidth="827" pageHeight="1169" math="0" shadow="0">
      <root>
        <mxCell id="0" />
        <mxCell id="1" parent="0" />
        <mxCell id="xRnMbnewokDlvGfy4qyn-4" value="QR" style="shape=ext;double=1;rounded=1;whiteSpace=wrap;html=1;" vertex="1" parent="1">
          <mxGeometry x="50" y="60" width="120" height="80" as="geometry" />
        </mxCell>
        <mxCell id="xRnMbnewokDlvGfy4qyn-5" value="QR" style="shape=ext;double=1;rounded=1;whiteSpace=wrap;html=1;" vertex="1" parent="1">
          <mxGeometry x="440" y="50" width="120" height="80" as="geometry" />
        </mxCell>
        <mxCell id="xRnMbnewokDlvGfy4qyn-6" value="QR" style="shape=ext;double=1;rounded=1;whiteSpace=wrap;html=1;" vertex="1" parent="1">
          <mxGeometry x="630" y="50" width="120" height="80" as="geometry" />
        </mxCell>
        <mxCell id="xRnMbnewokDlvGfy4qyn-7" value="" style="shape=table;html=1;whiteSpace=wrap;startSize=0;container=1;collapsible=0;childLayout=tableLayout;" vertex="1" parent="1">
          <mxGeometry x="50" y="160" width="160" height="220" as="geometry" />
        </mxCell>
        <mxCell id="xRnMbnewokDlvGfy4qyn-8" value="" style="shape=tableRow;horizontal=0;startSize=0;swimlaneHead=0;swimlaneBody=0;top=0;left=0;bottom=0;right=0;collapsible=0;dropTarget=0;fillColor=none;points=[[0,0.5],[1,0.5]];portConstraint=eastwest;" vertex="1" parent="xRnMbnewokDlvGfy4qyn-7">
          <mxGeometry width="160" height="73" as="geometry" />
        </mxCell>
        <mxCell id="xRnMbnewokDlvGfy4qyn-9" value="" style="shape=partialRectangle;html=1;whiteSpace=wrap;connectable=0;fillColor=none;top=0;left=0;bottom=0;right=0;overflow=hidden;" vertex="1" parent="xRnMbnewokDlvGfy4qyn-8">
          <mxGeometry width="53" height="73" as="geometry">
            <mxRectangle width="53" height="73" as="alternateBounds" />
          </mxGeometry>
        </mxCell>
        <mxCell id="xRnMbnewokDlvGfy4qyn-10" value="" style="shape=partialRectangle;html=1;whiteSpace=wrap;connectable=0;fillColor=none;top=0;left=0;bottom=0;right=0;overflow=hidden;" vertex="1" parent="xRnMbnewokDlvGfy4qyn-8">
          <mxGeometry x="53" width="54" height="73" as="geometry">
            <mxRectangle width="54" height="73" as="alternateBounds" />
          </mxGeometry>
        </mxCell>
        <mxCell id="xRnMbnewokDlvGfy4qyn-11" value="" style="shape=partialRectangle;html=1;whiteSpace=wrap;connectable=0;fillColor=none;top=0;left=0;bottom=0;right=0;overflow=hidden;" vertex="1" parent="xRnMbnewokDlvGfy4qyn-8">
          <mxGeometry x="107" width="53" height="73" as="geometry">
            <mxRectangle width="53" height="73" as="alternateBounds" />
          </mxGeometry>
        </mxCell>
        <mxCell id="xRnMbnewokDlvGfy4qyn-12" value="" style="shape=tableRow;horizontal=0;startSize=0;swimlaneHead=0;swimlaneBody=0;top=0;left=0;bottom=0;right=0;collapsible=0;dropTarget=0;fillColor=none;points=[[0,0.5],[1,0.5]];portConstraint=eastwest;" vertex="1" parent="xRnMbnewokDlvGfy4qyn-7">
          <mxGeometry y="73" width="160" height="74" as="geometry" />
        </mxCell>
        <mxCell id="xRnMbnewokDlvGfy4qyn-13" value="" style="shape=partialRectangle;html=1;whiteSpace=wrap;connectable=0;fillColor=none;top=0;left=0;bottom=0;right=0;overflow=hidden;" vertex="1" parent="xRnMbnewokDlvGfy4qyn-12">
          <mxGeometry width="53" height="74" as="geometry">
            <mxRectangle width="53" height="74" as="alternateBounds" />
          </mxGeometry>
        </mxCell>
        <mxCell id="xRnMbnewokDlvGfy4qyn-14" value="" style="shape=partialRectangle;html=1;whiteSpace=wrap;connectable=0;fillColor=none;top=0;left=0;bottom=0;right=0;overflow=hidden;" vertex="1" parent="xRnMbnewokDlvGfy4qyn-12">
          <mxGeometry x="53" width="54" height="74" as="geometry">
            <mxRectangle width="54" height="74" as="alternateBounds" />
          </mxGeometry>
        </mxCell>
        <mxCell id="xRnMbnewokDlvGfy4qyn-15" value="" style="shape=partialRectangle;html=1;whiteSpace=wrap;connectable=0;fillColor=none;top=0;left=0;bottom=0;right=0;overflow=hidden;" vertex="1" parent="xRnMbnewokDlvGfy4qyn-12">
          <mxGeometry x="107" width="53" height="74" as="geometry">
            <mxRectangle width="53" height="74" as="alternateBounds" />
          </mxGeometry>
        </mxCell>
        <mxCell id="xRnMbnewokDlvGfy4qyn-16" value="" style="shape=tableRow;horizontal=0;startSize=0;swimlaneHead=0;swimlaneBody=0;top=0;left=0;bottom=0;right=0;collapsible=0;dropTarget=0;fillColor=none;points=[[0,0.5],[1,0.5]];portConstraint=eastwest;" vertex="1" parent="xRnMbnewokDlvGfy4qyn-7">
          <mxGeometry y="147" width="160" height="73" as="geometry" />
        </mxCell>
        <mxCell id="xRnMbnewokDlvGfy4qyn-17" value="" style="shape=partialRectangle;html=1;whiteSpace=wrap;connectable=0;fillColor=none;top=0;left=0;bottom=0;right=0;overflow=hidden;" vertex="1" parent="xRnMbnewokDlvGfy4qyn-16">
          <mxGeometry width="53" height="73" as="geometry">
            <mxRectangle width="53" height="73" as="alternateBounds" />
          </mxGeometry>
        </mxCell>
        <mxCell id="xRnMbnewokDlvGfy4qyn-18" value="" style="shape=partialRectangle;html=1;whiteSpace=wrap;connectable=0;fillColor=none;top=0;left=0;bottom=0;right=0;overflow=hidden;" vertex="1" parent="xRnMbnewokDlvGfy4qyn-16">
          <mxGeometry x="53" width="54" height="73" as="geometry">
            <mxRectangle width="54" height="73" as="alternateBounds" />
          </mxGeometry>
        </mxCell>
        <mxCell id="xRnMbnewokDlvGfy4qyn-19" value="" style="shape=partialRectangle;html=1;whiteSpace=wrap;connectable=0;fillColor=none;top=0;left=0;bottom=0;right=0;overflow=hidden;pointerEvents=1;" vertex="1" parent="xRnMbnewokDlvGfy4qyn-16">
          <mxGeometry x="107" width="53" height="73" as="geometry">
            <mxRectangle width="53" height="73" as="alternateBounds" />
          </mxGeometry>
        </mxCell>
      </root>
    </mxGraphModel>
  </diagram>
</mxfile>
